<!--?xml version="1.0" encoding="us-ascii" standalone="no"?--><svg xmlns="http://www.w3.org/2000/svg" xmlns:xlink="http://www.w3.org/1999/xlink" contentstyletype="text/css" height="1358px" preserveAspectRatio="none" style="width:1135px;height:1358px;background:#FFFFFF;" version="1.1" viewBox="0 0 1135 1358" width="1135px" zoomAndPan="magnify"><defs></defs><g><rect fill="none" height="1123.5313" style="stroke:#000000;stroke-width:1.5;" width="1118.5" x="10" y="182.8281"></rect><rect fill="none" height="75.3984" style="stroke:#000000;stroke-width:1.5;" width="336.5" x="531.5" y="335.1641"></rect><rect fill="none" height="690.1328" style="stroke:#000000;stroke-width:1.5;" width="1098.5" x="20" y="609.2266"></rect><rect fill="none" height="346.1328" style="stroke:#000000;stroke-width:1.5;" width="1078.5" x="30" y="946.2266"></rect><line style="stroke:#181818;stroke-width:0.5;stroke-dasharray:5.0,5.0;" x1="66" x2="66" y1="36.2969" y2="1323.3594"></line><line style="stroke:#181818;stroke-width:0.5;stroke-dasharray:5.0,5.0;" x1="315.5" x2="315.5" y1="36.2969" y2="1323.3594"></line><line style="stroke:#181818;stroke-width:0.5;stroke-dasharray:5.0,5.0;" x1="567.5" x2="567.5" y1="36.2969" y2="1323.3594"></line><line style="stroke:#181818;stroke-width:0.5;stroke-dasharray:5.0,5.0;" x1="795" x2="795" y1="36.2969" y2="1323.3594"></line><line style="stroke:#181818;stroke-width:0.5;stroke-dasharray:5.0,5.0;" x1="922" x2="922" y1="36.2969" y2="1323.3594"></line><rect fill="#E2E2F0" height="30.2969" rx="2.5" ry="2.5" style="stroke:#181818;stroke-width:0.5;" width="53" x="40" y="5"></rect><text fill="#000000" font-family="sans-serif" font-size="14" lengthAdjust="spacing" textLength="39" x="47" y="24.9951">Client</text><rect fill="#E2E2F0" height="30.2969" rx="2.5" ry="2.5" style="stroke:#181818;stroke-width:0.5;" width="53" x="40" y="1322.3594"></rect><text fill="#000000" font-family="sans-serif" font-size="14" lengthAdjust="spacing" textLength="39" x="47" y="1342.3545">Client</text><rect fill="#E2E2F0" height="30.2969" rx="2.5" ry="2.5" style="stroke:#181818;stroke-width:0.5;" width="104" x="263.5" y="5"></rect><text fill="#000000" font-family="sans-serif" font-size="14" lengthAdjust="spacing" textLength="90" x="270.5" y="24.9951">OrderSystem</text><rect fill="#E2E2F0" height="30.2969" rx="2.5" ry="2.5" style="stroke:#181818;stroke-width:0.5;" width="104" x="263.5" y="1322.3594"></rect><text fill="#000000" font-family="sans-serif" font-size="14" lengthAdjust="spacing" textLength="90" x="270.5" y="1342.3545">OrderSystem</text><rect fill="#E2E2F0" height="30.2969" rx="2.5" ry="2.5" style="stroke:#181818;stroke-width:0.5;" width="52" x="541.5" y="5"></rect><text fill="#000000" font-family="sans-serif" font-size="14" lengthAdjust="spacing" textLength="38" x="548.5" y="24.9951">Seller</text><rect fill="#E2E2F0" height="30.2969" rx="2.5" ry="2.5" style="stroke:#181818;stroke-width:0.5;" width="52" x="541.5" y="1322.3594"></rect><text fill="#000000" font-family="sans-serif" font-size="14" lengthAdjust="spacing" textLength="38" x="548.5" y="1342.3545">Seller</text><rect fill="#E2E2F0" height="30.2969" rx="2.5" ry="2.5" style="stroke:#181818;stroke-width:0.5;" width="125" x="733" y="5"></rect><text fill="#000000" font-family="sans-serif" font-size="14" lengthAdjust="spacing" textLength="111" x="740" y="24.9951">PaymentSystem</text><rect fill="#E2E2F0" height="30.2969" rx="2.5" ry="2.5" style="stroke:#181818;stroke-width:0.5;" width="125" x="733" y="1322.3594"></rect><text fill="#000000" font-family="sans-serif" font-size="14" lengthAdjust="spacing" textLength="111" x="740" y="1342.3545">PaymentSystem</text><rect fill="#E2E2F0" height="30.2969" rx="2.5" ry="2.5" style="stroke:#181818;stroke-width:0.5;" width="109" x="868" y="5"></rect><text fill="#000000" font-family="sans-serif" font-size="14" lengthAdjust="spacing" textLength="95" x="875" y="24.9951">RatingSystem</text><rect fill="#E2E2F0" height="30.2969" rx="2.5" ry="2.5" style="stroke:#181818;stroke-width:0.5;" width="109" x="868" y="1322.3594"></rect><text fill="#000000" font-family="sans-serif" font-size="14" lengthAdjust="spacing" textLength="95" x="875" y="1342.3545">RatingSystem</text><line style="stroke:#181818;stroke-width:1.0;" x1="313.5" x2="303.5" y1="67.4297" y2="63.4297"></line><line style="stroke:#181818;stroke-width:1.0;" x1="313.5" x2="303.5" y1="67.4297" y2="71.4297"></line><line style="stroke:#181818;stroke-width:1.0;stroke-dasharray:2.0,2.0;" x1="66.5" x2="314.5" y1="67.4297" y2="67.4297"></line><text fill="#000000" font-family="sans-serif" font-size="13" lengthAdjust="spacing" textLength="178" x="73.5" y="62.3638">Press 'Order Service' button</text><line style="stroke:#181818;stroke-width:1.0;" x1="313.5" x2="303.5" y1="96.5625" y2="92.5625"></line><line style="stroke:#181818;stroke-width:1.0;" x1="313.5" x2="303.5" y1="96.5625" y2="100.5625"></line><line style="stroke:#181818;stroke-width:1.0;stroke-dasharray:2.0,2.0;" x1="66.5" x2="314.5" y1="96.5625" y2="96.5625"></line><text fill="#000000" font-family="sans-serif" font-size="13" lengthAdjust="spacing" textLength="225" x="73.5" y="91.4966">Fill form and provide expected time</text><line style="stroke:#181818;stroke-width:1.0;" x1="565.5" x2="555.5" y1="125.6953" y2="121.6953"></line><line style="stroke:#181818;stroke-width:1.0;" x1="565.5" x2="555.5" y1="125.6953" y2="129.6953"></line><line style="stroke:#181818;stroke-width:1.0;stroke-dasharray:2.0,2.0;" x1="315.5" x2="566.5" y1="125.6953" y2="125.6953"></line><text fill="#000000" font-family="sans-serif" font-size="13" lengthAdjust="spacing" textLength="188" x="322.5" y="120.6294">Send order without form data</text><line style="stroke:#181818;stroke-width:1.0;stroke-dasharray:2.0,2.0;" x1="567.5" x2="609.5" y1="154.8281" y2="154.8281"></line><line style="stroke:#181818;stroke-width:1.0;stroke-dasharray:2.0,2.0;" x1="609.5" x2="609.5" y1="154.8281" y2="167.8281"></line><line style="stroke:#181818;stroke-width:1.0;stroke-dasharray:2.0,2.0;" x1="568.5" x2="609.5" y1="167.8281" y2="167.8281"></line><line style="stroke:#181818;stroke-width:1.0;" x1="568.5" x2="578.5" y1="167.8281" y2="163.8281"></line><line style="stroke:#181818;stroke-width:1.0;" x1="568.5" x2="578.5" y1="167.8281" y2="171.8281"></line><text fill="#000000" font-family="sans-serif" font-size="13" lengthAdjust="spacing" textLength="81" x="574.5" y="149.7622">Review order</text><path d="M10,182.8281 L74,182.8281 L74,189.9609 L64,199.9609 L10,199.9609 L10,182.8281 " fill="#EEEEEE" style="stroke:#000000;stroke-width:1.5;"></path><rect fill="none" height="1123.5313" style="stroke:#000000;stroke-width:1.5;" width="1118.5" x="10" y="182.8281"></rect><text fill="#000000" font-family="sans-serif" font-size="13" font-weight="bold" lengthAdjust="spacing" textLength="19" x="25" y="195.895">alt</text><text fill="#000000" font-family="sans-serif" font-size="11" font-weight="bold" lengthAdjust="spacing" textLength="106" x="89" y="195.0386">[Order Rejected]</text><line style="stroke:#181818;stroke-width:1.0;" x1="316.5" x2="326.5" y1="221.0938" y2="217.0938"></line><line style="stroke:#181818;stroke-width:1.0;" x1="316.5" x2="326.5" y1="221.0938" y2="225.0938"></line><line style="stroke:#181818;stroke-width:1.0;stroke-dasharray:2.0,2.0;" x1="315.5" x2="566.5" y1="221.0938" y2="221.0938"></line><text fill="#000000" font-family="sans-serif" font-size="13" lengthAdjust="spacing" textLength="77" x="332.5" y="216.0278">Reject order</text><line style="stroke:#181818;stroke-width:1.0;stroke-dasharray:2.0,2.0;" x1="315.5" x2="357.5" y1="250.2266" y2="250.2266"></line><line style="stroke:#181818;stroke-width:1.0;stroke-dasharray:2.0,2.0;" x1="357.5" x2="357.5" y1="250.2266" y2="263.2266"></line><line style="stroke:#181818;stroke-width:1.0;stroke-dasharray:2.0,2.0;" x1="316.5" x2="357.5" y1="263.2266" y2="263.2266"></line><line style="stroke:#181818;stroke-width:1.0;" x1="316.5" x2="326.5" y1="263.2266" y2="259.2266"></line><line style="stroke:#181818;stroke-width:1.0;" x1="316.5" x2="326.5" y1="263.2266" y2="267.2266"></line><text fill="#000000" font-family="sans-serif" font-size="13" lengthAdjust="spacing" textLength="186" x="322.5" y="245.1606">Set order status to 'Rejected'</text><line style="stroke:#000000;stroke-width:1.0;stroke-dasharray:2.0,2.0;" x1="10" x2="1128.5" y1="272.2266" y2="272.2266"></line><text fill="#000000" font-family="sans-serif" font-size="11" font-weight="bold" lengthAdjust="spacing" textLength="101" x="15" y="282.437">[Seller Accepts]</text><line style="stroke:#181818;stroke-width:1.0;stroke-dasharray:2.0,2.0;" x1="315.5" x2="357.5" y1="307.1641" y2="307.1641"></line><line style="stroke:#181818;stroke-width:1.0;stroke-dasharray:2.0,2.0;" x1="357.5" x2="357.5" y1="307.1641" y2="320.1641"></line><line style="stroke:#181818;stroke-width:1.0;stroke-dasharray:2.0,2.0;" x1="316.5" x2="357.5" y1="320.1641" y2="320.1641"></line><line style="stroke:#181818;stroke-width:1.0;" x1="316.5" x2="326.5" y1="320.1641" y2="316.1641"></line><line style="stroke:#181818;stroke-width:1.0;" x1="316.5" x2="326.5" y1="320.1641" y2="324.1641"></line><text fill="#000000" font-family="sans-serif" font-size="13" lengthAdjust="spacing" textLength="148" x="322.5" y="302.0981">Check account balance</text><path d="M531.5,335.1641 L595.5,335.1641 L595.5,342.2969 L585.5,352.2969 L531.5,352.2969 L531.5,335.1641 " fill="#EEEEEE" style="stroke:#000000;stroke-width:1.5;"></path><rect fill="none" height="75.3984" style="stroke:#000000;stroke-width:1.5;" width="336.5" x="531.5" y="335.1641"></rect><text fill="#000000" font-family="sans-serif" font-size="13" font-weight="bold" lengthAdjust="spacing" textLength="19" x="546.5" y="348.231">alt</text><text fill="#000000" font-family="sans-serif" font-size="11" font-weight="bold" lengthAdjust="spacing" textLength="130" x="610.5" y="347.3745">[Not Enough Money]</text><polygon fill="#181818" points="783.5,369.4297,793.5,373.4297,783.5,377.4297,787.5,373.4297" style="stroke:#181818;stroke-width:1.0;"></polygon><line style="stroke:#181818;stroke-width:1.0;" x1="567.5" x2="789.5" y1="373.4297" y2="373.4297"></line><text fill="#000000" font-family="sans-serif" font-size="13" lengthAdjust="spacing" textLength="101" x="574.5" y="368.3638">Charge account</text><polygon fill="#181818" points="578.5,398.5625,568.5,402.5625,578.5,406.5625,574.5,402.5625" style="stroke:#181818;stroke-width:1.0;"></polygon><line style="stroke:#181818;stroke-width:1.0;stroke-dasharray:2.0,2.0;" x1="572.5" x2="794.5" y1="402.5625" y2="402.5625"></line><text fill="#000000" font-family="sans-serif" font-size="13" lengthAdjust="spacing" textLength="127" x="584.5" y="397.4966">Payment successful</text><polygon fill="#181818" points="326.5,434.6953,316.5,438.6953,326.5,442.6953,322.5,438.6953" style="stroke:#181818;stroke-width:1.0;"></polygon><line style="stroke:#181818;stroke-width:1.0;" x1="320.5" x2="566.5" y1="438.6953" y2="438.6953"></line><text fill="#000000" font-family="sans-serif" font-size="13" lengthAdjust="spacing" textLength="82" x="332.5" y="433.6294">Accept order</text><line style="stroke:#181818;stroke-width:1.0;stroke-dasharray:2.0,2.0;" x1="315.5" x2="357.5" y1="467.8281" y2="467.8281"></line><line style="stroke:#181818;stroke-width:1.0;stroke-dasharray:2.0,2.0;" x1="357.5" x2="357.5" y1="467.8281" y2="480.8281"></line><line style="stroke:#181818;stroke-width:1.0;stroke-dasharray:2.0,2.0;" x1="316.5" x2="357.5" y1="480.8281" y2="480.8281"></line><line style="stroke:#181818;stroke-width:1.0;" x1="316.5" x2="326.5" y1="480.8281" y2="476.8281"></line><line style="stroke:#181818;stroke-width:1.0;" x1="316.5" x2="326.5" y1="480.8281" y2="484.8281"></line><text fill="#000000" font-family="sans-serif" font-size="13" lengthAdjust="spacing" textLength="214" x="322.5" y="462.7622">Set order status to 'Under review'</text><polygon fill="#181818" points="555.5,505.9609,565.5,509.9609,555.5,513.9609,559.5,509.9609" style="stroke:#181818;stroke-width:1.0;"></polygon><line style="stroke:#181818;stroke-width:1.0;stroke-dasharray:2.0,2.0;" x1="315.5" x2="561.5" y1="509.9609" y2="509.9609"></line><text fill="#000000" font-family="sans-serif" font-size="13" lengthAdjust="spacing" textLength="100" x="322.5" y="504.895">Send form data</text><line style="stroke:#181818;stroke-width:1.0;stroke-dasharray:2.0,2.0;" x1="567.5" x2="609.5" y1="539.0938" y2="539.0938"></line><line style="stroke:#181818;stroke-width:1.0;stroke-dasharray:2.0,2.0;" x1="609.5" x2="609.5" y1="539.0938" y2="552.0938"></line><line style="stroke:#181818;stroke-width:1.0;stroke-dasharray:2.0,2.0;" x1="568.5" x2="609.5" y1="552.0938" y2="552.0938"></line><line style="stroke:#181818;stroke-width:1.0;" x1="568.5" x2="578.5" y1="552.0938" y2="548.0938"></line><line style="stroke:#181818;stroke-width:1.0;" x1="568.5" x2="578.5" y1="552.0938" y2="556.0938"></line><text fill="#000000" font-family="sans-serif" font-size="13" lengthAdjust="spacing" textLength="110" x="574.5" y="534.0278">Review form data</text><line style="stroke:#181818;stroke-width:1.0;stroke-dasharray:2.0,2.0;" x1="567.5" x2="609.5" y1="581.2266" y2="581.2266"></line><line style="stroke:#181818;stroke-width:1.0;stroke-dasharray:2.0,2.0;" x1="609.5" x2="609.5" y1="581.2266" y2="594.2266"></line><line style="stroke:#181818;stroke-width:1.0;stroke-dasharray:2.0,2.0;" x1="568.5" x2="609.5" y1="594.2266" y2="594.2266"></line><line style="stroke:#181818;stroke-width:1.0;" x1="568.5" x2="578.5" y1="594.2266" y2="590.2266"></line><line style="stroke:#181818;stroke-width:1.0;" x1="568.5" x2="578.5" y1="594.2266" y2="598.2266"></line><text fill="#000000" font-family="sans-serif" font-size="13" lengthAdjust="spacing" textLength="214" x="574.5" y="576.1606">15 minutes to accept/reject order</text><path d="M20,609.2266 L84,609.2266 L84,616.3594 L74,626.3594 L20,626.3594 L20,609.2266 " fill="#EEEEEE" style="stroke:#000000;stroke-width:1.5;"></path><rect fill="none" height="690.1328" style="stroke:#000000;stroke-width:1.5;" width="1098.5" x="20" y="609.2266"></rect><text fill="#000000" font-family="sans-serif" font-size="13" font-weight="bold" lengthAdjust="spacing" textLength="19" x="35" y="622.2935">alt</text><text fill="#000000" font-family="sans-serif" font-size="11" font-weight="bold" lengthAdjust="spacing" textLength="92" x="99" y="621.437">[Time Expires]</text><line style="stroke:#181818;stroke-width:1.0;stroke-dasharray:2.0,2.0;" x1="315.5" x2="357.5" y1="647.4922" y2="647.4922"></line><line style="stroke:#181818;stroke-width:1.0;stroke-dasharray:2.0,2.0;" x1="357.5" x2="357.5" y1="647.4922" y2="660.4922"></line><line style="stroke:#181818;stroke-width:1.0;stroke-dasharray:2.0,2.0;" x1="316.5" x2="357.5" y1="660.4922" y2="660.4922"></line><line style="stroke:#181818;stroke-width:1.0;" x1="316.5" x2="326.5" y1="660.4922" y2="656.4922"></line><line style="stroke:#181818;stroke-width:1.0;" x1="316.5" x2="326.5" y1="660.4922" y2="664.4922"></line><text fill="#000000" font-family="sans-serif" font-size="13" lengthAdjust="spacing" textLength="82" x="322.5" y="642.4263">Accept order</text><line style="stroke:#181818;stroke-width:1.0;stroke-dasharray:2.0,2.0;" x1="315.5" x2="357.5" y1="689.625" y2="689.625"></line><line style="stroke:#181818;stroke-width:1.0;stroke-dasharray:2.0,2.0;" x1="357.5" x2="357.5" y1="689.625" y2="702.625"></line><line style="stroke:#181818;stroke-width:1.0;stroke-dasharray:2.0,2.0;" x1="316.5" x2="357.5" y1="702.625" y2="702.625"></line><line style="stroke:#181818;stroke-width:1.0;" x1="316.5" x2="326.5" y1="702.625" y2="698.625"></line><line style="stroke:#181818;stroke-width:1.0;" x1="316.5" x2="326.5" y1="702.625" y2="706.625"></line><text fill="#000000" font-family="sans-serif" font-size="13" lengthAdjust="spacing" textLength="194" x="322.5" y="684.5591">Set order status to 'Underway'</text><line style="stroke:#181818;stroke-width:1.0;" x1="565.5" x2="555.5" y1="731.7578" y2="727.7578"></line><line style="stroke:#181818;stroke-width:1.0;" x1="565.5" x2="555.5" y1="731.7578" y2="735.7578"></line><line style="stroke:#181818;stroke-width:1.0;stroke-dasharray:2.0,2.0;" x1="315.5" x2="566.5" y1="731.7578" y2="731.7578"></line><text fill="#000000" font-family="sans-serif" font-size="13" lengthAdjust="spacing" textLength="228" x="322.5" y="726.6919">Notify order accepted automatically</text><line style="stroke:#181818;stroke-width:1.0;stroke-dasharray:2.0,2.0;" x1="567.5" x2="609.5" y1="760.8906" y2="760.8906"></line><line style="stroke:#181818;stroke-width:1.0;stroke-dasharray:2.0,2.0;" x1="609.5" x2="609.5" y1="760.8906" y2="773.8906"></line><line style="stroke:#181818;stroke-width:1.0;stroke-dasharray:2.0,2.0;" x1="568.5" x2="609.5" y1="773.8906" y2="773.8906"></line><line style="stroke:#181818;stroke-width:1.0;" x1="568.5" x2="578.5" y1="773.8906" y2="769.8906"></line><line style="stroke:#181818;stroke-width:1.0;" x1="568.5" x2="578.5" y1="773.8906" y2="777.8906"></line><text fill="#000000" font-family="sans-serif" font-size="13" lengthAdjust="spacing" textLength="100" x="574.5" y="755.8247">Complete order</text><line style="stroke:#000000;stroke-width:1.0;stroke-dasharray:2.0,2.0;" x1="20" x2="1118.5" y1="782.8906" y2="782.8906"></line><text fill="#000000" font-family="sans-serif" font-size="11" font-weight="bold" lengthAdjust="spacing" textLength="101" x="25" y="793.1011">[Seller Accepts]</text><polygon fill="#181818" points="326.5,813.8281,316.5,817.8281,326.5,821.8281,322.5,817.8281" style="stroke:#181818;stroke-width:1.0;"></polygon><line style="stroke:#181818;stroke-width:1.0;" x1="320.5" x2="566.5" y1="817.8281" y2="817.8281"></line><text fill="#000000" font-family="sans-serif" font-size="13" lengthAdjust="spacing" textLength="82" x="332.5" y="812.7622">Accept order</text><line style="stroke:#181818;stroke-width:1.0;stroke-dasharray:2.0,2.0;" x1="315.5" x2="357.5" y1="846.9609" y2="846.9609"></line><line style="stroke:#181818;stroke-width:1.0;stroke-dasharray:2.0,2.0;" x1="357.5" x2="357.5" y1="846.9609" y2="859.9609"></line><line style="stroke:#181818;stroke-width:1.0;stroke-dasharray:2.0,2.0;" x1="316.5" x2="357.5" y1="859.9609" y2="859.9609"></line><line style="stroke:#181818;stroke-width:1.0;" x1="316.5" x2="326.5" y1="859.9609" y2="855.9609"></line><line style="stroke:#181818;stroke-width:1.0;" x1="316.5" x2="326.5" y1="859.9609" y2="863.9609"></line><text fill="#000000" font-family="sans-serif" font-size="13" lengthAdjust="spacing" textLength="194" x="322.5" y="841.895">Set order status to 'Underway'</text><polygon fill="#181818" points="555.5,885.0938,565.5,889.0938,555.5,893.0938,559.5,889.0938" style="stroke:#181818;stroke-width:1.0;"></polygon><line style="stroke:#181818;stroke-width:1.0;stroke-dasharray:2.0,2.0;" x1="315.5" x2="561.5" y1="889.0938" y2="889.0938"></line><text fill="#000000" font-family="sans-serif" font-size="13" lengthAdjust="spacing" textLength="138" x="322.5" y="884.0278">Notify order accepted</text><line style="stroke:#181818;stroke-width:1.0;stroke-dasharray:2.0,2.0;" x1="567.5" x2="609.5" y1="918.2266" y2="918.2266"></line><line style="stroke:#181818;stroke-width:1.0;stroke-dasharray:2.0,2.0;" x1="609.5" x2="609.5" y1="918.2266" y2="931.2266"></line><line style="stroke:#181818;stroke-width:1.0;stroke-dasharray:2.0,2.0;" x1="568.5" x2="609.5" y1="931.2266" y2="931.2266"></line><line style="stroke:#181818;stroke-width:1.0;" x1="568.5" x2="578.5" y1="931.2266" y2="927.2266"></line><line style="stroke:#181818;stroke-width:1.0;" x1="568.5" x2="578.5" y1="931.2266" y2="935.2266"></line><text fill="#000000" font-family="sans-serif" font-size="13" lengthAdjust="spacing" textLength="100" x="574.5" y="913.1606">Complete order</text><path d="M30,946.2266 L94,946.2266 L94,953.3594 L84,963.3594 L30,963.3594 L30,946.2266 " fill="#EEEEEE" style="stroke:#000000;stroke-width:1.5;"></path><rect fill="none" height="346.1328" style="stroke:#000000;stroke-width:1.5;" width="1078.5" x="30" y="946.2266"></rect><text fill="#000000" font-family="sans-serif" font-size="13" font-weight="bold" lengthAdjust="spacing" textLength="19" x="45" y="959.2935">alt</text><text fill="#000000" font-family="sans-serif" font-size="11" font-weight="bold" lengthAdjust="spacing" textLength="151" x="109" y="958.437">[Finish Button Pressed]</text><line style="stroke:#181818;stroke-width:1.0;" x1="316.5" x2="326.5" y1="984.4922" y2="980.4922"></line><line style="stroke:#181818;stroke-width:1.0;" x1="316.5" x2="326.5" y1="984.4922" y2="988.4922"></line><line style="stroke:#181818;stroke-width:1.0;stroke-dasharray:2.0,2.0;" x1="315.5" x2="566.5" y1="984.4922" y2="984.4922"></line><text fill="#000000" font-family="sans-serif" font-size="13" lengthAdjust="spacing" textLength="150" x="332.5" y="979.4263">Notify order completion</text><line style="stroke:#181818;stroke-width:1.0;stroke-dasharray:2.0,2.0;" x1="315.5" x2="357.5" y1="1013.625" y2="1013.625"></line><line style="stroke:#181818;stroke-width:1.0;stroke-dasharray:2.0,2.0;" x1="357.5" x2="357.5" y1="1013.625" y2="1026.625"></line><line style="stroke:#181818;stroke-width:1.0;stroke-dasharray:2.0,2.0;" x1="316.5" x2="357.5" y1="1026.625" y2="1026.625"></line><line style="stroke:#181818;stroke-width:1.0;" x1="316.5" x2="326.5" y1="1026.625" y2="1022.625"></line><line style="stroke:#181818;stroke-width:1.0;" x1="316.5" x2="326.5" y1="1026.625" y2="1030.625"></line><text fill="#000000" font-family="sans-serif" font-size="13" lengthAdjust="spacing" textLength="161" x="322.5" y="1008.5591">Set order status 'Expired'</text><line style="stroke:#181818;stroke-width:1.0;" x1="920.5" x2="910.5" y1="1055.7578" y2="1051.7578"></line><line style="stroke:#181818;stroke-width:1.0;" x1="920.5" x2="910.5" y1="1055.7578" y2="1059.7578"></line><line style="stroke:#181818;stroke-width:1.0;stroke-dasharray:2.0,2.0;" x1="315.5" x2="921.5" y1="1055.7578" y2="1055.7578"></line><text fill="#000000" font-family="sans-serif" font-size="13" lengthAdjust="spacing" textLength="143" x="322.5" y="1050.6919">Enable rating for order</text><line style="stroke:#181818;stroke-width:1.0;" x1="920.5" x2="910.5" y1="1084.8906" y2="1080.8906"></line><line style="stroke:#181818;stroke-width:1.0;" x1="920.5" x2="910.5" y1="1084.8906" y2="1088.8906"></line><line style="stroke:#181818;stroke-width:1.0;stroke-dasharray:2.0,2.0;" x1="66.5" x2="921.5" y1="1084.8906" y2="1084.8906"></line><text fill="#000000" font-family="sans-serif" font-size="13" lengthAdjust="spacing" textLength="189" x="73.5" y="1079.8247">Rate order and add comment</text><line style="stroke:#181818;stroke-width:1.0;stroke-dasharray:2.0,2.0;" x1="922.5" x2="964.5" y1="1114.0234" y2="1114.0234"></line><line style="stroke:#181818;stroke-width:1.0;stroke-dasharray:2.0,2.0;" x1="964.5" x2="964.5" y1="1114.0234" y2="1127.0234"></line><line style="stroke:#181818;stroke-width:1.0;stroke-dasharray:2.0,2.0;" x1="923.5" x2="964.5" y1="1127.0234" y2="1127.0234"></line><line style="stroke:#181818;stroke-width:1.0;" x1="923.5" x2="933.5" y1="1127.0234" y2="1123.0234"></line><line style="stroke:#181818;stroke-width:1.0;" x1="923.5" x2="933.5" y1="1127.0234" y2="1131.0234"></line><text fill="#000000" font-family="sans-serif" font-size="13" lengthAdjust="spacing" textLength="167" x="929.5" y="1108.9575">Save rating and comment</text><line style="stroke:#000000;stroke-width:1.0;stroke-dasharray:2.0,2.0;" x1="30" x2="1108.5" y1="1136.0234" y2="1136.0234"></line><text fill="#000000" font-family="sans-serif" font-size="11" font-weight="bold" lengthAdjust="spacing" textLength="139" x="35" y="1146.2339">[Expected Time Ends]</text><line style="stroke:#181818;stroke-width:1.0;stroke-dasharray:2.0,2.0;" x1="315.5" x2="357.5" y1="1170.9609" y2="1170.9609"></line><line style="stroke:#181818;stroke-width:1.0;stroke-dasharray:2.0,2.0;" x1="357.5" x2="357.5" y1="1170.9609" y2="1183.9609"></line><line style="stroke:#181818;stroke-width:1.0;stroke-dasharray:2.0,2.0;" x1="316.5" x2="357.5" y1="1183.9609" y2="1183.9609"></line><line style="stroke:#181818;stroke-width:1.0;" x1="316.5" x2="326.5" y1="1183.9609" y2="1179.9609"></line><line style="stroke:#181818;stroke-width:1.0;" x1="316.5" x2="326.5" y1="1183.9609" y2="1187.9609"></line><text fill="#000000" font-family="sans-serif" font-size="13" lengthAdjust="spacing" textLength="161" x="322.5" y="1165.895">Set order status 'Expired'</text><line style="stroke:#181818;stroke-width:1.0;" x1="920.5" x2="910.5" y1="1213.0938" y2="1209.0938"></line><line style="stroke:#181818;stroke-width:1.0;" x1="920.5" x2="910.5" y1="1213.0938" y2="1217.0938"></line><line style="stroke:#181818;stroke-width:1.0;stroke-dasharray:2.0,2.0;" x1="315.5" x2="921.5" y1="1213.0938" y2="1213.0938"></line><text fill="#000000" font-family="sans-serif" font-size="13" lengthAdjust="spacing" textLength="143" x="322.5" y="1208.0278">Enable rating for order</text><line style="stroke:#181818;stroke-width:1.0;" x1="920.5" x2="910.5" y1="1242.2266" y2="1238.2266"></line><line style="stroke:#181818;stroke-width:1.0;" x1="920.5" x2="910.5" y1="1242.2266" y2="1246.2266"></line><line style="stroke:#181818;stroke-width:1.0;stroke-dasharray:2.0,2.0;" x1="66.5" x2="921.5" y1="1242.2266" y2="1242.2266"></line><text fill="#000000" font-family="sans-serif" font-size="13" lengthAdjust="spacing" textLength="189" x="73.5" y="1237.1606">Rate order and add comment</text><line style="stroke:#181818;stroke-width:1.0;stroke-dasharray:2.0,2.0;" x1="922.5" x2="964.5" y1="1271.3594" y2="1271.3594"></line><line style="stroke:#181818;stroke-width:1.0;stroke-dasharray:2.0,2.0;" x1="964.5" x2="964.5" y1="1271.3594" y2="1284.3594"></line><line style="stroke:#181818;stroke-width:1.0;stroke-dasharray:2.0,2.0;" x1="923.5" x2="964.5" y1="1284.3594" y2="1284.3594"></line><line style="stroke:#181818;stroke-width:1.0;" x1="923.5" x2="933.5" y1="1284.3594" y2="1280.3594"></line><line style="stroke:#181818;stroke-width:1.0;" x1="923.5" x2="933.5" y1="1284.3594" y2="1288.3594"></line><text fill="#000000" font-family="sans-serif" font-size="13" lengthAdjust="spacing" textLength="167" x="929.5" y="1266.2935">Save rating and comment</text><!--SRC=[vLHDRzim3BtxL_3cKp7ii4iE0ReWlMqhclK7C3AJg9CbGwAJ-j-FifJ0GjDy0Blj40Ic-CX7Ff8TUjPATsWP5aQJvQgRc7xvXlng24mjOCYVvFTQKU6t8cF85wPd75e9by35omkojjlyKAMiyF0mdnVnP_3iAGIeHoDaQmthdjdP2x0dRGnid1V6je7Ekxrk2EYz8yNK0EkMgYaYnKWLpEHVG6vCUT2ySpsdM0qoLicf1BpGNjCXGIeqkMTYVXlp5PYIQ7B9o8-CIkSLPKy8ZDm7O0VrCKbTaGcKAS6ZKjHnk1foiIFr1r0frqidrsZGYgonX9-EOMbTlzt13sTfE1KnBsMDCT1lwHYaAbvZpbERyWk4NjY5iEbD9PsU12wvfHfkwWryqfnN6mr-bAV-4ACK_2Q9Bpjz_GQjjZtJc1r7_b_yLEBOsTyoVR1yxxJCzbM1xcZ2fHuSSAW_dNZfdgYjDqC69-Ao9zYpQsLJ5HepdAruuThE45CcU6u4_u6yTrTshR1RQebIFMchmmw-Z_Sc7QEBwrnaKocUbajr__JMQK2QSwfDZ-TCbXJNXi2FnZYWcV_qEfO8-Q9ZHsJmiMaYrxYQrTJn77I5-rEgY3tYHk6Nn_kQ9jmsuJyeN0vO_lq5]--></g></svg>